<svg width="24" height="24" viewBox="0 0 24 24" fill="none" xmlns="http://www.w3.org/2000/svg">
<circle cx="12" cy="12.0001" r="8.4743" transform="rotate(-25.998 12 12.0001)" stroke="white"/>
<path d="M16.506 10.196C16.5959 9.93489 16.4571 9.65034 16.196 9.56043L11.9412 8.09522C11.6801 8.00531 11.3956 8.14408 11.3057 8.40518C11.2158 8.66627 11.3545 8.95082 11.6156 9.04073L15.3976 10.3431L14.0952 14.1252C14.0053 14.3863 14.1441 14.6708 14.4052 14.7607C14.6663 14.8506 14.9508 14.7119 15.0407 14.4508L16.506 10.196ZM7.1604 14.3604L7.37957 14.8098L16.2524 10.4826L16.0332 10.0332L15.814 9.58378L6.94123 13.9109L7.1604 14.3604Z" fill="white"/>
</svg>
